<svg xmlns="http://www.w3.org/2000/svg" id="Layer_14_copy" data-name="Layer 14 copy" viewBox="90.36 234.05 105.76 118.91">
  <defs>
    <style>
      .cls-1 {
        fill: #d60f0f;
      }
    </style>
  </defs>
  <polygon class="cls-1" points="133.64 306.08 90.36 306.08 117.72 234.05 128.41 234.05 104.85 296.08 137.38 296.08 133.64 306.08"/>
  <path class="cls-1" d="M115.93,352.96l-10.56-.21,15.63-41.12h18.67c13.01,0,21.75-8.17,21.75-15.81,0-6.83-7.47-11.28-19.51-11.94l-2.42,6.58-10.43-.04,6.33-16.63h3.98c10.18,0,17.69,2.07,23.45,6.14,5.55,3.92,8.6,9.57,8.6,15.89,0,12.41-12.14,25.81-31.75,25.81h-11.66l-12.07,31.33Z"/>
  <path class="cls-1" d="M168.92,277.79l16.57-43.74h10.63l-20.28,53.72s-.35-5.29-6.92-9.98Z"/>
</svg>