<?xml version="1.0" encoding="utf-8"?>
<!-- Generator: Adobe Illustrator 27.0.0, SVG Export Plug-In . SVG Version: 6.00 Build 0)  -->
<svg version="1.1" id="Layer_14_copy" xmlns="http://www.w3.org/2000/svg" xmlns:xlink="http://www.w3.org/1999/xlink" x="0px"
	 y="0px" viewBox="0 0 250 250" style="enable-background:new 0 0 250 250;" xml:space="preserve">
<style type="text/css">
	.st0{fill:#FFFFFF;}
	.st1{fill:#CA3540;}
</style>
<circle class="st0" cx="125" cy="125" r="125"/>
<polygon class="st1" points="111.7,142.2 51.7,142.2 89.6,43.9 104.4,43.9 71.8,128.5 116.9,128.5 "/>
<path class="st1" d="M87.1,206.1l-14.6-0.3l21.7-56.1H120c18,0,30.2-11.1,30.2-21.6c0-9.3-10.4-15.4-27.1-16.3l-3.4,9l-14.5-0.1
	l8.8-22.7h5.5c14.1,0,24.5,2.8,32.5,8.4c7.7,5.3,11.9,13.1,11.9,21.7c0,16.9-16.8,35.2-44,35.2h-16.2L87.1,206.1L87.1,206.1z"/>
<path class="st1" d="M160.6,103.6l23-59.7h14.7l-28.1,73.3C170.2,117.2,169.7,110,160.6,103.6z"/>
</svg>
